grf
version=1
nRows=11
nColumns=46
inDegrees=yes
endheader
time	ground_force_1_vx	ground_force_1_vy	ground_force_1_vz	ground_force_1_px	ground_force_1_py	ground_force_1_pz	ground_moment_1_mx	ground_moment_1_my	ground_moment_1_mz	ground_force_2_vx	ground_force_2_vy	ground_force_2_vz	ground_force_2_px	ground_force_2_py	ground_force_2_pz	ground_moment_2_mx	ground_moment_2_my	ground_moment_2_mz	ground_force_3_vx	ground_force_3_vy	ground_force_3_vz	ground_force_3_px	ground_force_3_py	ground_force_3_pz	ground_moment_3_mx	ground_moment_3_my	ground_moment_3_mz	ground_force_4_vx	ground_force_4_vy	ground_force_4_vz	ground_force_4_px	ground_force_4_py	ground_force_4_pz	ground_moment_4_mx	ground_moment_4_my	ground_moment_4_mz	ground_force_5_vx	ground_force_5_vy	ground_force_5_vz	ground_force_5_px	ground_force_5_py	ground_force_5_pz	ground_moment_5_mx	ground_moment_5_my	ground_moment_5_mz
2.040000	0.000000	0.000000	0.000000	0.000000	0.000000	0.000000	0.000000	0.000000	0.000000	0.000000	0.000000	0.000000	0.000000	0.000000	0.000000	0.000000	0.000000	0.000000	0.000000	0.000000	0.000000	0.000000	0.000000	0.000000	0.000000	0.000000	0.000000	3.165768	498.215830	-102.747590	0.201857	0.000000	-0.877683	-0.000000	5.556110	0.000000	6.438708	471.163125	102.089694	0.229198	0.000000	-1.598655	0.000000	-1.372351	-0.000000
2.040500	0.000000	0.000000	0.000000	0.000000	0.000000	0.000000	0.000000	0.000000	0.000000	0.000000	0.000000	0.000000	0.000000	0.000000	0.000000	0.000000	0.000000	0.000000	0.000000	0.000000	0.000000	0.000000	0.000000	0.000000	0.000000	0.000000	0.000000	3.180031	498.057053	-102.716557	0.201819	0.000000	-0.877715	-0.000000	5.560865	0.000000	6.382986	470.822019	102.082123	0.229191	0.000000	-1.598650	0.000000	-1.369067	-0.000000
2.041000	0.000000	0.000000	0.000000	0.000000	0.000000	0.000000	0.000000	0.000000	0.000000	0.000000	0.000000	0.000000	0.000000	0.000000	0.000000	0.000000	0.000000	0.000000	0.000000	0.000000	0.000000	0.000000	0.000000	0.000000	0.000000	0.000000	0.000000	3.196490	497.897599	-102.685464	0.201782	0.000000	-0.877747	-0.000000	5.565516	0.000000	6.327705	470.478803	102.073579	0.229183	0.000000	-1.598645	0.000000	-1.365841	-0.000000
2.041500	0.000000	0.000000	0.000000	0.000000	0.000000	0.000000	0.000000	0.000000	0.000000	0.000000	0.000000	0.000000	0.000000	0.000000	0.000000	0.000000	0.000000	0.000000	0.000000	0.000000	0.000000	0.000000	0.000000	0.000000	0.000000	0.000000	0.000000	3.215029	497.737362	-102.654378	0.201743	0.000000	-0.877779	-0.000000	5.570064	0.000000	6.272861	470.133470	102.064019	0.229174	0.000000	-1.598640	0.000000	-1.362663	-0.000000
2.042000	0.000000	0.000000	0.000000	0.000000	0.000000	0.000000	0.000000	0.000000	0.000000	0.000000	0.000000	0.000000	0.000000	0.000000	0.000000	0.000000	0.000000	0.000000	0.000000	0.000000	0.000000	0.000000	0.000000	0.000000	0.000000	0.000000	0.000000	3.235529	497.576227	-102.623359	0.201704	0.000000	-0.877811	-0.000000	5.574514	0.000000	6.218448	469.786026	102.053401	0.229166	0.000000	-1.598634	0.000000	-1.359523	-0.000000
2.042500	0.000000	0.000000	0.000000	0.000000	0.000000	0.000000	0.000000	0.000000	0.000000	0.000000	0.000000	0.000000	0.000000	0.000000	0.000000	0.000000	0.000000	0.000000	0.000000	0.000000	0.000000	0.000000	0.000000	0.000000	0.000000	0.000000	0.000000	3.257865	497.414073	-102.592469	0.201665	0.000000	-0.877843	-0.000000	5.578867	0.000000	6.164459	469.436483	102.041684	0.229157	0.000000	-1.598628	0.000000	-1.356412	-0.000000
2.043000	0.000000	0.000000	0.000000	0.000000	0.000000	0.000000	0.000000	0.000000	0.000000	0.000000	0.000000	0.000000	0.000000	0.000000	0.000000	0.000000	0.000000	0.000000	0.000000	0.000000	0.000000	0.000000	0.000000	0.000000	0.000000	0.000000	0.000000	3.281916	497.250774	-102.561769	0.201625	0.000000	-0.877875	-0.000000	5.583128	0.000000	6.110884	469.084852	102.028835	0.229147	0.000000	-1.598621	0.000000	-1.353321	-0.000000
2.043500	0.000000	0.000000	0.000000	0.000000	0.000000	0.000000	0.000000	0.000000	0.000000	0.000000	0.000000	0.000000	0.000000	0.000000	0.000000	0.000000	0.000000	0.000000	0.000000	0.000000	0.000000	0.000000	0.000000	0.000000	0.000000	0.000000	0.000000	3.307557	497.086210	-102.531320	0.201585	0.000000	-0.877908	-0.000000	5.587300	0.000000	6.057707	468.731143	102.014819	0.229137	0.000000	-1.598614	0.000000	-1.350243	-0.000000
2.044000	0.000000	0.000000	0.000000	0.000000	0.000000	0.000000	0.000000	0.000000	0.000000	0.000000	0.000000	0.000000	0.000000	0.000000	0.000000	0.000000	0.000000	0.000000	0.000000	0.000000	0.000000	0.000000	0.000000	0.000000	0.000000	0.000000	0.000000	3.334669	496.920274	-102.501187	0.201544	0.000000	-0.877940	-0.000000	5.591388	0.000000	6.004909	468.375356	101.999597	0.229127	0.000000	-1.598606	0.000000	-1.347173	-0.000000
2.044500	0.000000	0.000000	0.000000	0.000000	0.000000	0.000000	0.000000	0.000000	0.000000	0.000000	0.000000	0.000000	0.000000	0.000000	0.000000	0.000000	0.000000	0.000000	0.000000	0.000000	0.000000	0.000000	0.000000	0.000000	0.000000	0.000000	0.000000	3.363130	496.752882	-102.471440	0.201502	0.000000	-0.877973	-0.000000	5.595395	0.000000	5.952468	468.017497	101.983129	0.229116	0.000000	-1.598597	0.000000	-1.344106	-0.000000
2.045000	0.000000	0.000000	0.000000	0.000000	0.000000	0.000000	0.000000	0.000000	0.000000	0.000000	0.000000	0.000000	0.000000	0.000000	0.000000	0.000000	0.000000	0.000000	0.000000	0.000000	0.000000	0.000000	0.000000	0.000000	0.000000	0.000000	0.000000	3.392816	496.583978	-102.442148	0.201460	0.000000	-0.878005	-0.000000	5.599320	0.000000	5.900361	467.657579	101.965372	0.229105	0.000000	-1.598588	0.000000	-1.341044	-0.000000
